<svg width="115" height="115" viewBox="0 0 115 115" fill="none" xmlns="http://www.w3.org/2000/svg">
<g clip-path="url(#clip0_2_6)">
<path d="M35.7075 70.0781C35.4733 69.6661 35.1598 69.3045 34.7853 69.0141C34.4107 68.7237 33.9824 68.5103 33.525 68.3862C33.0676 68.262 32.5902 68.2295 32.1202 68.2906C31.6502 68.3517 31.1969 68.5051 30.7865 68.7421C30.376 68.9791 30.0165 69.2949 29.7286 69.6714C29.4407 70.0479 29.2302 70.4776 29.109 70.9358C28.9879 71.394 28.9586 71.8716 29.0228 72.3412C29.087 72.8108 29.2434 73.263 29.4831 73.6719C32.3213 78.5907 36.4051 82.6751 41.3234 85.514C46.2418 88.353 51.8211 89.8463 57.5 89.8438C63.1786 89.8449 68.7574 88.3509 73.6755 85.5121C78.5936 82.6733 82.6776 78.5897 85.5169 73.6719C85.7566 73.263 85.913 72.8108 85.9773 72.3412C86.0415 71.8716 86.0121 71.394 85.891 70.9358C85.7699 70.4776 85.5593 70.0479 85.2714 69.6714C84.9835 69.2949 84.624 68.9791 84.2135 68.7421C83.8031 68.5051 83.3498 68.3517 82.8798 68.2906C82.4099 68.2295 81.9324 68.262 81.475 68.3862C81.0177 68.5103 80.5893 68.7237 80.2148 69.0141C79.8402 69.3045 79.5268 69.6661 79.2925 70.0781C77.0852 73.9043 73.9087 77.0814 70.083 79.2895C66.2572 81.4976 61.9173 82.6589 57.5 82.6562C53.0828 82.6589 48.7428 81.4976 44.9171 79.2895C41.0913 77.0814 37.9149 73.9043 35.7075 70.0781V70.0781ZM50.3125 36.7713V35.9375C50.3125 34.0313 49.5553 32.2031 48.2073 30.8552C46.8594 29.5073 45.0313 28.75 43.125 28.75H23.575C22.4825 28.75 21.4043 28.9991 20.4225 29.4784C19.4407 29.9576 18.581 30.6543 17.9089 31.5157C17.2367 32.377 16.7698 33.3802 16.5435 34.449C16.3173 35.5179 16.3376 36.6243 16.6031 37.6841L18.8384 46.6109C19.6158 49.7208 21.4103 52.4816 23.9368 54.4546C26.4632 56.4276 29.5766 57.4995 32.7822 57.5H35.9375C39.5503 57.5009 43.0309 56.1414 45.6867 53.6921C48.3424 51.2428 49.9786 47.8832 50.2694 44.2822C52.5957 43.4857 55.0414 43.0942 57.5 43.125C60.3247 43.125 62.8188 43.585 64.7306 44.2822C65.0215 47.8832 66.6576 51.2428 69.3133 53.6921C71.9691 56.1414 75.4497 57.5009 79.0625 57.5H82.2106C85.4162 57.4995 88.5296 56.4276 91.0561 54.4546C93.5825 52.4816 95.3771 49.7208 96.1544 46.6109L98.3897 37.6841C98.6551 36.6249 98.6756 35.5191 98.4497 34.4508C98.2239 33.3825 97.7576 32.3797 97.0862 31.5185C96.4149 30.6573 95.5561 29.9604 94.5752 29.4807C93.5943 29.001 92.517 28.7511 91.425 28.75H71.875C69.9688 28.75 68.1406 29.5073 66.7927 30.8552C65.4448 32.2031 64.6875 34.0313 64.6875 35.9375V36.7713C62.3335 36.2075 59.9205 35.9276 57.5 35.9375C54.9844 35.9375 52.5406 36.225 50.3125 36.7713Z" fill="#F79326"/>
<path d="M115 57.5C115 72.7499 108.942 87.3753 98.1586 98.1586C87.3753 108.942 72.7499 115 57.5 115C42.2501 115 27.6247 108.942 16.8414 98.1586C6.05802 87.3753 0 72.7499 0 57.5C0 42.2501 6.05802 27.6247 16.8414 16.8414C27.6247 6.05802 42.2501 0 57.5 0C72.7499 0 87.3753 6.05802 98.1586 16.8414C108.942 27.6247 115 42.2501 115 57.5V57.5ZM107.812 57.5C107.812 44.1563 102.512 31.3591 93.0763 21.9237C83.6409 12.4883 70.8437 7.1875 57.5 7.1875C44.1563 7.1875 31.3591 12.4883 21.9237 21.9237C12.4883 31.3591 7.1875 44.1563 7.1875 57.5C7.1875 70.8437 12.4883 83.6409 21.9237 93.0763C31.3591 102.512 44.1563 107.812 57.5 107.812C70.8437 107.812 83.6409 102.512 93.0763 93.0763C102.512 83.6409 107.812 70.8437 107.812 57.5Z" fill="#F79326"/>
</g>
<defs>
<clipPath id="clip0_2_6">
<rect width="115" height="115" fill="white"/>
</clipPath>
</defs>
</svg>
